<?xml version="1.0" encoding="iso-8859-1"?>
<!-- Uploaded to: SVG Repo, www.svgrepo.com, Generator: SVG Repo Mixer Tools -->
<svg version="1.1" id="Layer_1" xmlns="http://www.w3.org/2000/svg" xmlns:xlink="http://www.w3.org/1999/xlink" 
	 viewBox="0 0 512 512" xml:space="preserve">
<path style="fill:#816952;" d="M250.435,194.782h-66.783c-9.217,0-16.696,7.473-16.696,16.696v283.826
	c0,9.223,7.479,16.696,16.696,16.696h66.783c9.217,0,16.696-7.473,16.696-16.696V211.478
	C267.13,202.255,259.652,194.782,250.435,194.782z"/>
<path style="fill:#77604B;" d="M250.435,194.782h-33.391V512h33.391c9.217,0,16.696-7.473,16.696-16.696V211.478
	C267.13,202.255,259.652,194.782,250.435,194.782z"/>
<path style="fill:#7CCC92;" d="M434.087,172.521c0,9.238-7.456,16.584-16.696,16.584h-67.785
	c28.829,30.163,43.855,68.452,39.29,100.73c-2.114,15.026-8.459,28.16-18.364,38.066c-6.568,6.567-17.141,6.567-23.598,0
	L238.635,219.603H195.45L87.151,327.902c-6.457,6.567-17.03,6.567-23.598,0c-16.696-16.696-22.817-41.294-17.141-69.231
	c4.787-24.376,18.367-48.863,37.957-69.454H16.696C7.456,189.217,0,181.76,0,172.521c0-45.19,47.861-80.807,109.969-83.256
	L63.555,42.852c-6.456-6.567-6.456-17.141,0-23.597C80.25,2.56,104.849-3.562,132.786,2.003c25.489,5.12,51.201,19.59,72.459,40.849
	c4.453,4.452,8.348,9.238,11.799,14.358c0.111,0,0.111,0.11,0.111,0.11c3.563-5.12,7.456-10.017,11.911-14.47
	c21.257-21.258,46.968-35.728,72.458-40.848c27.936-5.565,52.536,0.557,69.231,17.252c6.567,6.456,6.567,17.03,0,23.597
	L324.23,89.377c40.515,1.67,76.8,17.809,95.944,43.186C429.302,144.695,434.087,158.497,434.087,172.521z"/>
<path style="fill:#34B772;" d="M434.087,172.521c0,9.238-7.456,16.584-16.696,16.584h-67.785
	c28.829,30.163,43.855,68.452,39.29,100.73c-2.114,15.026-8.459,28.16-18.364,38.066c-6.568,6.567-17.141,6.567-23.598,0
	L238.635,219.603h-21.592V57.21c0.111,0,0.111,0.11,0.111,0.11c3.563-5.12,7.456-10.017,11.911-14.47
	c21.258-21.258,46.969-35.728,72.459-40.848c27.936-5.565,52.536,0.557,69.231,17.252c6.567,6.456,6.567,17.03,0,23.597
	L324.23,89.377c40.515,1.67,76.8,17.809,95.944,43.186C429.302,144.695,434.087,158.497,434.087,172.521z"/>
<path style="fill:#816952;" d="M250.435,100.174c-12.875,0-24.509,5.018-33.391,13.027c-8.882-8.009-20.517-13.027-33.391-13.027
	c-27.619,0-50.087,22.468-50.087,50.087s22.468,50.087,50.087,50.087c12.875,0,24.509-5.018,33.391-13.027
	c8.882,8.009,20.517,13.027,33.391,13.027c27.619,0,50.087-22.468,50.087-50.087S278.054,100.174,250.435,100.174z"/>
<g>
	<rect x="166.957" y="395.13" style="fill:#D8B68A;" width="100.174" height="33.391"/>
	<rect x="166.957" y="328.348" style="fill:#D8B68A;" width="100.174" height="33.391"/>
</g>
<g>
	<rect x="217.043" y="328.348" style="fill:#C9A06F;" width="50.087" height="33.391"/>
	<rect x="217.043" y="395.13" style="fill:#C9A06F;" width="50.087" height="33.391"/>
</g>
<path style="fill:#34B772;" d="M461.913,512H361.739c-27.619,0-50.087-22.468-50.087-50.087c0-14.076,5.88-27.527,16.141-36.902
	c7.228-6.614,16.141-10.778,25.826-12.201c11.576-21.158,33.359-34.288,58.218-34.288c24.848,0,46.62,13.131,58.195,34.288
	c9.696,1.424,18.598,5.587,25.826,12.201C506.12,434.385,512,447.836,512,461.913C512,489.532,489.532,512,461.913,512z"/>
<path style="fill:#77604B;" d="M250.435,200.348c27.619,0,50.087-22.468,50.087-50.087s-22.468-50.087-50.087-50.087
	c-12.875,0-24.509,5.018-33.391,13.027v74.12C225.926,195.33,237.56,200.348,250.435,200.348z"/>
<path style="fill:#D8B68A;" d="M217.043,258.782c-27.619,0-50.087-22.468-50.087-50.087s22.468-50.087,50.087-50.087
	s50.087,22.468,50.087,50.087S244.663,258.782,217.043,258.782z"/>
<path style="fill:#C9A06F;" d="M267.13,208.695c0-27.619-22.468-50.087-50.087-50.087v100.174
	C244.663,258.782,267.13,236.314,267.13,208.695z"/>
<path style="fill:#696B6F;" d="M495.304,512H116.87c-9.217,0-16.696-7.473-16.696-16.696s7.479-16.696,16.696-16.696h378.435
	c9.217,0,16.696,7.473,16.696,16.696S504.521,512,495.304,512z"/>
<path style="fill:#616267;" d="M495.304,478.608H217.043V512h278.261c9.217,0,16.696-7.473,16.696-16.696
	S504.521,478.608,495.304,478.608z"/>
</svg>