<?xml version="1.0" standalone="no"?>
<!DOCTYPE svg PUBLIC "-//W3C//DTD SVG 20010904//EN"
 "http://www.w3.org/TR/2001/REC-SVG-20010904/DTD/svg10.dtd">
<svg version="1.0" xmlns="http://www.w3.org/2000/svg"
 width="869.000000pt" height="1669.000000pt" viewBox="0 0 869.000000 1669.000000"
 preserveAspectRatio="xMidYMid meet">
<metadata>
Created by potrace 1.16, written by Peter Selinger 2001-2019
</metadata>
<g transform="translate(0.000000,1669.000000) scale(0.100000,-0.100000)"
fill="#000000" stroke="none">
<path d="M6840 15279 c0 -3 13 -44 29 -91 16 -48 27 -89 23 -92 -5 -6 13 -10
35 -7 7 1 141 -41 299 -94 158 -52 291 -95 296 -95 19 0 6 20 -17 26 -14 3
-25 12 -25 20 0 8 -8 14 -18 14 -10 0 -25 9 -35 20 -9 11 -23 20 -31 20 -8 0
-16 7 -20 15 -3 8 -14 15 -23 15 -10 0 -26 9 -36 20 -9 11 -23 20 -31 20 -8 0
-16 7 -20 15 -3 8 -15 15 -26 15 -11 0 -23 7 -26 15 -4 10 -20 15 -47 15 -97
0 -264 74 -314 139 -7 9 -13 13 -13 10z"/>
<path d="M7596 12487 c-10 -18 -37 -66 -59 -107 -58 -108 -187 -237 -281 -282
-70 -33 -72 -33 -201 -31 -126 3 -223 14 -295 35 -50 14 -143 50 -158 62 -7 5
-58 9 -114 8 -85 -1 -113 3 -172 24 -39 14 -96 33 -126 43 -30 10 -126 51
-214 90 -87 39 -202 83 -255 97 -85 24 -107 26 -198 20 -56 -3 -121 -10 -145
-16 -24 -5 -69 -15 -101 -22 l-59 -13 144 -74 c311 -160 500 -258 658 -341 91
-47 187 -96 214 -109 50 -25 45 -24 436 -50 459 -31 618 -44 648 -52 8 -3 54
76 125 212 104 201 115 227 151 368 39 153 40 203 2 138z"/>
<path d="M4648 11053 c-32 -2 -58 -8 -58 -13 0 -6 -5 -9 -10 -7 -6 1 -66 -126
-133 -283 -109 -252 -134 -301 -216 -424 l-94 -139 50 -46 c57 -54 103 -95
238 -216 55 -50 107 -97 115 -105 41 -38 108 -98 150 -133 25 -22 70 -63 100
-91 30 -29 134 -124 230 -211 172 -157 175 -159 230 -166 30 -4 253 -8 495 -8
l440 -1 -44 -20 c-70 -32 -167 -41 -443 -41 -141 0 -272 -5 -290 -10 -62 -18
-118 -27 -124 -18 -3 5 -17 9 -31 9 -15 0 -24 3 -21 6 3 3 -5 17 -18 31 -13
14 -25 24 -27 22 -7 -11 -110 -224 -184 -383 -46 -99 -93 -194 -103 -212 -11
-17 -20 -36 -20 -43 0 -6 -13 -32 -30 -59 l-29 -47 22 -7 c30 -10 802 -152
1267 -233 206 -36 383 -70 393 -75 9 -6 17 -6 17 -1 0 19 -110 827 -115 841
-4 13 -19 33 -65 87 -5 7 -10 15 -10 18 0 4 -6 13 -12 20 -24 27 -53 68 -65
94 -4 9 5 22 23 35 16 12 40 31 54 43 l25 21 -58 169 c-31 92 -57 172 -57 177
0 5 45 54 99 110 l100 101 -16 265 -16 265 43 73 c23 40 52 79 64 86 11 7 71
26 131 41 61 16 113 31 117 34 4 3 12 56 18 116 6 61 13 124 15 140 8 51 -12
6 -24 -57 -21 -102 -74 -144 -201 -158 -60 -7 -99 -18 -150 -44 -87 -43 -174
-55 -246 -33 -27 9 -173 61 -324 117 -151 56 -385 142 -520 192 -135 49 -272
100 -306 113 -127 49 -246 67 -376 58z"/>
<path d="M3211 7790 c-29 -52 -56 -69 -120 -77 -60 -7 -78 -22 -61 -53 10 -18
17 -20 63 -14 77 9 124 23 130 37 7 19 20 147 15 147 -2 0 -15 -18 -27 -40z"/>
<path d="M4045 7094 c-49 -7 -180 -20 -290 -29 -110 -9 -240 -25 -290 -35
l-90 -18 451 -1 c563 -1 1324 10 1324 19 0 14 -189 33 -360 36 -148 2 -433 14
-450 19 -3 1 -36 5 -75 9 -38 4 -83 8 -100 10 -16 2 -70 -2 -120 -10z"/>
<path d="M3412 6743 c-27 -52 -34 -134 -34 -423 -1 -265 1 -304 16 -318 12
-13 18 -13 28 -4 16 16 28 15 28 -4 0 -8 4 -13 9 -10 5 4 23 -15 40 -41 17
-27 49 -72 71 -102 22 -29 37 -57 35 -62 -3 -4 0 -11 6 -15 8 -5 9 -3 4 7 -16
28 12 -7 70 -86 32 -44 70 -96 85 -115 47 -61 79 -118 72 -126 -4 -4 -2 -4 5
0 7 4 24 -12 44 -41 18 -27 36 -50 39 -53 15 -11 230 -325 230 -335 0 -2 10
-15 23 -29 57 -63 49 -50 367 -586 393 -662 359 -610 383 -600 22 8 97 43 262
120 123 58 328 153 583 271 l212 98 43 -19 c23 -11 64 -20 90 -20 43 0 51 4
80 37 35 41 278 312 392 438 223 246 392 436 428 480 40 47 40 49 9 25 -18
-14 -51 -43 -75 -64 -23 -22 -78 -71 -122 -109 -100 -87 -225 -217 -225 -233
0 -12 -150 -201 -218 -274 -23 -25 -42 -47 -42 -50 0 -3 -18 -26 -41 -50 -22
-25 -53 -61 -67 -80 -54 -72 -69 -79 -159 -80 -46 0 -83 2 -83 5 0 3 31 71 69
152 38 82 95 207 126 278 l57 130 -1 129 c-1 71 -3 132 -6 136 -9 15 -6 255 4
253 5 -2 24 11 41 28 41 42 37 71 -12 83 -30 8 -65 1 -215 -42 -235 -67 -272
-76 -443 -107 -80 -14 -172 -32 -205 -40 -33 -8 -168 -35 -300 -60 -132 -24
-307 -59 -390 -77 -121 -25 -174 -32 -275 -32 -114 -1 -132 2 -203 28 -108 40
-184 93 -240 168 -25 35 -56 74 -69 88 -13 14 -35 43 -50 65 -30 44 -237 308
-287 366 -17 20 -31 39 -31 43 0 8 -52 66 -103 117 l-38 37 0 361 c0 199 -1
361 -4 361 -2 0 -8 -8 -13 -17z"/>
<path d="M1057 6233 c-8 -8 23 -29 188 -128 72 -42 132 -81 133 -86 2 -5 12
-9 22 -9 17 0 19 7 17 61 -3 75 -13 82 -177 124 -36 9 -85 23 -110 31 -50 16
-64 17 -73 7z"/>
<path d="M1386 5900 c-10 -30 -23 -60 -28 -67 -5 -6 -12 -38 -15 -70 -3 -32
-10 -66 -15 -76 -17 -32 9 -75 49 -83 18 -4 35 -5 37 -3 1 2 0 83 -3 179 l-6
175 -19 -55z"/>
<path d="M1455 5639 c-14 -17 -25 -35 -25 -40 0 -5 46 -69 101 -141 56 -73
124 -163 151 -200 54 -73 75 -85 110 -67 32 16 88 77 88 96 0 31 -62 112 -118
154 -31 24 -86 73 -120 111 -110 117 -146 134 -187 87z"/>
<path d="M1735 5115 c-52 -148 -78 -189 -113 -180 -18 4 -37 -7 -90 -54 -63
-56 -124 -95 -251 -163 -30 -16 -66 -37 -80 -47 -73 -50 -181 -72 -346 -72
-113 1 -216 23 -330 73 -134 58 -137 58 -227 47 -100 -12 -158 -25 -168 -36
-7 -7 129 -128 491 -437 l69 -58 442 -52 443 -53 630 -253 c347 -139 636 -254
643 -257 7 -3 12 3 12 15 0 13 41 61 113 130 105 102 412 392 521 492 87 79
218 202 311 291 49 48 125 120 168 160 44 41 115 108 158 150 l79 76 -46 1
c-35 1 -54 -5 -86 -28 -28 -21 -53 -30 -79 -30 -25 0 -47 -8 -67 -25 -36 -30
-77 -46 -98 -38 -9 3 -26 -5 -42 -19 -36 -34 -65 -48 -98 -48 -19 0 -47 -18
-94 -59 -89 -80 -203 -154 -338 -221 -66 -33 -111 -61 -111 -70 -1 -24 -57
-86 -89 -99 -25 -11 -31 -20 -36 -61 -5 -36 -15 -56 -39 -80 -71 -70 -163 -93
-372 -94 -169 -1 -249 13 -396 70 -81 31 -92 33 -138 23 -49 -10 -57 -9 -251
21 -30 5 -89 26 -132 47 -82 41 -97 40 -99 -7 0 -14 -4 -34 -8 -45 -10 -25
-21 103 -21 246 l0 108 43 48 c23 26 71 77 106 113 87 88 102 114 89 151 -6
16 -8 38 -5 49 3 11 1 23 -4 26 -5 3 -9 18 -9 33 0 23 -34 197 -44 226 -2 6
-7 1 -11 -10z"/>
<path d="M7400 4788 c0 -9 -21 -42 -46 -73 -70 -86 -90 -105 -108 -105 -23 0
-47 -15 -150 -94 -109 -83 -125 -94 -111 -79 9 10 245 219 351 311 39 35 43
40 18 28 -17 -8 -98 -74 -180 -147 -370 -328 -369 -327 -412 -346 -29 -13 -83
-18 -247 -23 l-210 -7 251 -1 250 -1 327 -56 327 -55 114 56 c109 54 114 58
120 93 14 87 9 107 -51 189 -32 42 -61 82 -65 87 -5 6 -43 57 -85 115 -90 126
-93 129 -93 108z"/>
<path d="M6073 3025 c3 -16 11 -64 17 -105 6 -41 18 -107 25 -146 11 -54 12
-95 5 -175 -5 -57 -9 -136 -10 -174 l0 -71 188 -61 c103 -34 372 -118 599
-188 358 -111 412 -131 422 -151 5 -13 22 -85 37 -161 15 -76 32 -143 38 -149
6 -6 45 -20 86 -30 l75 -19 223 226 223 227 20 137 c11 76 18 148 15 161 -6
22 -50 63 -289 272 -59 52 -107 97 -107 100 0 4 20 18 44 31 25 13 53 32 63
43 19 21 23 15 -64 88 -20 16 -31 12 -117 -39 -121 -72 -134 -75 -326 -67
-157 7 -241 12 -340 20 -25 2 -117 7 -205 10 -201 8 -302 21 -385 48 -62 21
-150 71 -150 86 0 4 -21 32 -47 62 -42 51 -45 53 -40 25z"/>
<path d="M5967 1974 c-4 -4 -33 -9 -65 -11 -31 -2 -73 -5 -92 -7 -45 -5 -174
-43 -211 -62 -45 -23 -354 -121 -439 -139 -60 -13 -156 -17 -490 -20 -443 -3
-406 0 -880 -71 -398 -59 -418 -58 460 -34 184 5 470 12 635 16 216 4 315 10
355 20 51 14 170 55 215 74 11 5 31 12 45 15 14 4 72 24 130 45 58 21 139 51
180 65 41 14 83 30 92 35 26 14 136 50 153 50 8 0 15 5 15 10 0 6 -12 10 -27
10 -16 0 -37 3 -48 6 -11 3 -24 2 -28 -2z"/>
<path d="M6637 612 c-54 -37 -115 -78 -137 -92 -21 -14 -89 -59 -152 -101 -62
-41 -134 -88 -160 -103 -27 -15 -48 -34 -48 -42 0 -8 -11 -19 -25 -24 -14 -5
-25 -16 -25 -23 0 -8 -9 -22 -20 -32 -45 -40 -60 -115 -18 -89 7 5 16 9 20 9
3 0 10 4 15 9 5 5 2 6 -6 1 -9 -5 -12 -4 -7 3 4 7 13 12 21 12 7 0 16 8 19 18
7 20 60 55 70 45 3 -3 6 1 6 10 0 19 33 40 45 29 5 -4 5 -2 2 4 -8 14 28 48
42 40 5 -4 13 -1 17 5 5 8 3 10 -7 4 -8 -4 6 11 31 34 24 23 50 39 57 37 7 -3
15 0 19 6 4 7 3 8 -4 4 -7 -4 -12 -3 -12 2 0 9 46 35 65 36 6 1 10 6 10 11 0
20 17 36 32 31 8 -3 12 -2 9 3 -7 11 28 43 45 39 7 -2 13 4 14 12 1 8 6 14 13
12 7 -1 15 5 18 13 3 8 11 12 17 8 5 -3 7 -1 4 4 -9 14 29 47 44 37 7 -4 10
-3 5 4 -7 11 32 44 44 37 9 -5 24 12 33 38 4 9 5 17 4 17 -1 -1 -46 -31 -100
-68z"/>
<path d="M5418 428 c-37 -55 -319 -188 -401 -188 -39 0 -216 -57 -236 -76 -12
-11 -11 -15 12 -23 25 -10 26 -13 15 -33 -7 -13 -21 -29 -30 -36 -22 -16 -12
-42 16 -42 25 1 56 22 56 40 0 7 7 10 16 6 8 -3 13 -2 9 3 -8 13 52 54 66 45
7 -4 9 -3 6 3 -4 6 5 19 19 28 21 14 39 16 93 11 92 -9 122 -16 115 -27 -7
-11 -4 -11 33 1 16 6 46 31 67 56 21 25 41 43 44 40 9 -9 41 24 36 37 -5 14
88 117 105 117 19 0 9 54 -10 58 -9 2 -23 -7 -31 -20z"/>
</g>
</svg>
