<?xml version="1.0" encoding="iso-8859-1"?>
<!-- Uploaded to: SVG Repo, www.svgrepo.com, Generator: SVG Repo Mixer Tools -->
<svg version="1.1" id="Layer_1" xmlns="http://www.w3.org/2000/svg" xmlns:xlink="http://www.w3.org/1999/xlink" 
	 viewBox="0 0 511.6 511.6" xml:space="preserve">
<g>
	<path style="fill:#E6E9ED;" d="M351.729,31.975c0,5.894-4.777,10.664-10.648,10.664c-5.9,0-10.679-4.771-10.679-10.664
		c0-5.886,4.778-10.655,10.679-10.655C346.951,21.32,351.729,26.089,351.729,31.975z"/>
	<path style="fill:#E6E9ED;" d="M479.629,31.975c0,5.894-4.777,10.664-10.648,10.664c-5.901,0-10.679-4.771-10.679-10.664
		c0-5.886,4.777-10.655,10.679-10.655C474.852,21.32,479.629,26.089,479.629,31.975z"/>
</g>
<path style="fill:#434A54;" d="M437.006,0h-63.95c-5.901,0-10.679,4.777-10.679,10.663v44.411c0,5.886,4.777,10.655,10.679,10.655
	h63.95c5.87,0,10.648-4.77,10.648-10.655V10.663C447.654,4.778,442.876,0,437.006,0z M426.326,44.41h-42.623V21.32h42.623V44.41z"/>
<path style="fill:#656D78;" d="M490.278,127.9c0,5.887-4.747,10.664-10.648,10.664H330.402c-5.87,0-10.647-4.777-10.647-10.664
	V42.639c0-5.887,4.777-10.664,10.647-10.664H479.63c5.901,0,10.648,4.777,10.648,10.664V127.9z"/>
<rect x="319.75" y="159.87" style="fill:#ED5564;" width="170.52" height="351.73"/>
<rect x="170.53" y="266.46" style="fill:#FC6E51;" width="149.22" height="245.14"/>
<rect x="21.322" y="373.05" style="fill:#FFCE54;" width="149.21" height="138.55"/>
<path style="fill:#ED5564;" d="M268.193,85.417l-42.062-6.932c-5.808-0.952-11.288,2.975-12.256,8.79
	c-0.952,5.8,2.982,11.288,8.79,12.248l16.675,2.748L25.773,255.355v0.008c-2.686,1.937-4.45,5.09-4.45,8.657
	c0,5.887,4.777,10.656,10.664,10.656c2.311,0,4.449-0.734,6.198-1.998v0.016l213.583-153.107l-2.748,16.683
	c-0.968,5.808,2.967,11.296,8.775,12.248c0.593,0.102,1.17,0.148,1.748,0.148c5.121,0,9.648-3.708,10.508-8.931l6.924-42.061
	C277.943,91.865,274.008,86.378,268.193,85.417z"/>
</svg>